# xmcd CD database file
#
# Track frame offsets:
#	150
#	13024
#	26353
#	40017
#	53817
#	68221
#	78907
#	92809
#	106576
#	122819
#	144407
#	157196
#	170812
#	191883
#
# Disc length: 2756 seconds
#
# Revision: 0
# Processed by: cddbd v1.5.2PL0 Copyright (c) Steve Scherf et al.
# Submitted via: CDex 1.70beta3
#
DISCID=b70ac20e
DTITLE=Laurindo Almeida - Laurindo Almeida Quartet featuring Bud Shank (PJ-1204)
DYEAR=1900
DGENRE=Jazz
TTITLE0=Atabaque
TTITLE1=Amor Flamengo
TTITLE2=Stairway To The Stars
TTITLE3=Acercate Mas
TTITLE4=Terra Seca
TTITLE5=Speak Low
TTITLE6=Inquietacao
TTITLE7=Baa-Too-Kee
TTITLE8=Cariaoso
TTITLE9=Tocata
TTITLE10=Hazardous
TTITLE11=No No
TTITLE12=Noctambulism
TTITLE13=Blue Baiao
EXTD=
EXTT0=
EXTT1=
EXTT2=
EXTT3=
EXTT4=
EXTT5=
EXTT6=
EXTT7=
EXTT8=
EXTT9=
EXTT10=
EXTT11=
EXTT12=
EXTT13=
PLAYORDER=
